<svg width="40" height="40" viewBox="0 0 40 40" fill="none" xmlns="http://www.w3.org/2000/svg">
<rect x="40" width="40" height="40" rx="20" transform="rotate(90 40 0)" fill="#E0EFF6"/>
<path fill-rule="evenodd" clip-rule="evenodd" d="M15.979 20.0001C15.979 19.8816 16.0261 19.7679 16.1099 19.6841C16.1937 19.6004 16.3073 19.5533 16.4258 19.5533L24.4684 19.5533C24.5869 19.5533 24.7006 19.6004 24.7843 19.6841C24.8681 19.7679 24.9152 19.8816 24.9152 20.0001C24.9152 20.1186 24.8681 20.2322 24.7843 20.316C24.7006 20.3998 24.5869 20.4469 24.4684 20.4469L16.4258 20.4469C16.3073 20.4469 16.1937 20.3998 16.1099 20.316C16.0261 20.2322 15.979 20.1186 15.979 20.0001Z" fill="#07484A"/>
<path fill-rule="evenodd" clip-rule="evenodd" d="M15.216 20.3163C15.1744 20.2748 15.1414 20.2255 15.1188 20.1712C15.0963 20.117 15.0847 20.0588 15.0847 20C15.0847 19.9412 15.0963 19.883 15.1188 19.8287C15.1414 19.7745 15.1744 19.7252 15.216 19.6837L17.8968 17.0028C17.9807 16.9189 18.0945 16.8718 18.2132 16.8718C18.3318 16.8718 18.4456 16.9189 18.5295 17.0028C18.6134 17.0867 18.6606 17.2005 18.6606 17.3191C18.6606 17.4378 18.6134 17.5516 18.5295 17.6355L16.1641 20L18.5295 22.3645C18.6134 22.4484 18.6606 22.5622 18.6606 22.6809C18.6606 22.7995 18.6134 22.9133 18.5295 22.9972C18.4456 23.0811 18.3318 23.1282 18.2132 23.1282C18.0945 23.1282 17.9807 23.0811 17.8968 22.9972L15.216 20.3163Z" fill="#07484A"/>
</svg>
