<svg width="40" height="40" viewBox="0 0 40 40" fill="none" xmlns="http://www.w3.org/2000/svg">
<rect x="40" y="40" width="40" height="40" rx="20" transform="rotate(180 40 40)" fill="#E0EFF6"/>
<path fill-rule="evenodd" clip-rule="evenodd" d="M19.9998 15.9791C20.1183 15.9791 20.2319 16.0262 20.3157 16.11C20.3995 16.1938 20.4466 16.3074 20.4466 16.4259L20.4466 24.4685C20.4466 24.587 20.3995 24.7007 20.3157 24.7845C20.2319 24.8683 20.1183 24.9153 19.9998 24.9153C19.8813 24.9153 19.7676 24.8683 19.6839 24.7845C19.6001 24.7007 19.553 24.587 19.553 24.4685L19.553 16.4259C19.553 16.3074 19.6001 16.1938 19.6838 16.11C19.7676 16.0262 19.8813 15.9791 19.9998 15.9791Z" fill="#07484A"/>
<path fill-rule="evenodd" clip-rule="evenodd" d="M19.6836 15.216C19.7251 15.1744 19.7744 15.1414 19.8287 15.1188C19.883 15.0963 19.9412 15.0847 19.9999 15.0847C20.0587 15.0847 20.1169 15.0963 20.1712 15.1188C20.2255 15.1414 20.2748 15.1744 20.3163 15.216L22.9972 17.8968C23.0811 17.9807 23.1282 18.0945 23.1282 18.2132C23.1282 18.3318 23.0811 18.4456 22.9972 18.5295C22.9133 18.6134 22.7995 18.6606 22.6808 18.6606C22.5622 18.6606 22.4484 18.6134 22.3645 18.5295L19.9999 16.1641L17.6354 18.5295C17.5515 18.6134 17.4377 18.6606 17.3191 18.6606C17.2004 18.6606 17.0866 18.6134 17.0027 18.5295C16.9188 18.4456 16.8717 18.3318 16.8717 18.2132C16.8717 18.0945 16.9188 17.9807 17.0027 17.8968L19.6836 15.216Z" fill="#07484A"/>
</svg>
